# Blender v2.93.3 OBJ File: ''
# www.blender.org
mtllib block_phys.mtl
o Cube.001_Cube.002
v 0.000000 -20.000000 -20.000000
v 0.000000 20.000000 -20.000000
v 0.000000 20.000000 -16.725252
v -6.385279 20.000000 -15.414644
v 0.000000 -20.000000 -16.725252
v -6.385279 -20.000000 -15.414644
v -6.385279 20.000000 -20.000000
v -6.385279 -20.000000 -20.000000
vt 0.375000 0.375000
vt 0.625000 0.335092
vt 0.375000 0.335092
vt 0.250000 0.520467
vt 0.789908 0.528658
vt 0.750000 0.520467
vt 0.210092 0.500000
vt 0.210092 0.528659
vt 0.789908 0.500000
vt 0.750000 0.500000
vt 0.250000 0.500000
vt 0.625000 0.375000
vn -0.5773 0.5773 0.5773
vn 0.5773 -0.5773 0.5773
vn 0.5773 0.5773 0.5773
vn -0.6264 0.5887 -0.5109
vn 0.5204 -0.5674 -0.6381
vn -0.6264 -0.5887 -0.5109
vn 0.5204 0.5674 -0.6381
vn -0.5773 -0.5773 0.5773
usemtl None
s 1
f 1/1/1 7/2/2 8/3/3
f 5/4/4 4/5/5 3/6/6
f 5/4/4 8/7/3 6/8/7
f 7/9/2 3/6/6 4/5/5
f 8/7/3 4/5/5 6/8/7
f 5/4/4 2/10/8 1/11/1
f 1/1/1 2/12/8 7/2/2
f 5/4/4 6/8/7 4/5/5
f 5/4/4 1/11/1 8/7/3
f 7/9/2 2/10/8 3/6/6
f 8/7/3 7/2/2 4/5/5
f 5/4/4 3/6/6 2/10/8
o Cube.002_Cube.003
v -6.385279 20.000000 -15.414644
v -11.828600 20.000000 -11.828600
v -11.828600 -20.000000 -11.828600
v -6.385279 -20.000000 -15.414644
v -11.828600 -20.000000 -20.000000
v -11.828600 20.000000 -20.000000
v -6.385279 20.000000 -20.000000
v -6.385279 -20.000000 -20.000000
vt 0.210092 0.528659
vt 0.823929 0.551071
vt 0.789908 0.528658
vt 0.375000 0.335092
vt 0.625000 0.301071
vt 0.375000 0.301071
vt 0.176071 0.500000
vt 0.176071 0.551071
vt 0.823929 0.500000
vt 0.210092 0.500000
vt 0.625000 0.335092
vt 0.789908 0.500000
vn -0.6947 0.6143 -0.3742
vn 0.3952 -0.5527 -0.7336
vn -0.6947 -0.6143 -0.3742
vn -0.5773 0.5773 0.5773
vn 0.5773 -0.5773 0.5773
vn 0.5773 0.5773 0.5773
vn 0.3952 0.5527 -0.7336
vn -0.5773 -0.5773 0.5773
usemtl None
s 1
f 12/13/9 10/14/10 9/15/11
f 16/16/12 14/17/13 13/18/14
f 12/13/9 13/19/14 11/20/15
f 14/21/13 9/15/11 10/14/10
f 9/15/11 16/22/12 12/13/9
f 13/19/14 10/14/10 11/20/15
f 12/13/9 11/20/15 10/14/10
f 16/16/12 15/23/16 14/17/13
f 12/13/9 16/22/12 13/19/14
f 14/21/13 15/24/16 9/15/11
f 9/15/11 15/23/16 16/22/12
f 13/19/14 14/17/13 10/14/10
o Cube.003_Cube.004
v -20.000000 -20.000000 -20.000000
v -20.000000 20.000000 -20.000000
v -11.828600 20.000000 -11.828600
v -11.828600 -20.000000 -11.828600
v -20.000000 20.000000 -11.828600
v -20.000000 -20.000000 -11.828600
v -11.828600 -20.000000 -20.000000
v -11.828600 20.000000 -20.000000
vt 0.375000 0.250000
vt 0.625000 0.198929
vt 0.375000 0.198929
vt 0.375000 0.301071
vt 0.625000 0.250000
vt 0.125000 0.500000
vt 0.176071 0.551071
vt 0.176071 0.500000
vt 0.875000 0.500000
vt 0.823929 0.551071
vt 0.875000 0.551071
vt 0.823929 0.500000
vt 0.125000 0.551071
vt 0.625000 0.301071
vn 0.5773 0.5773 0.5773
vn 0.5773 -0.5773 -0.5773
vn 0.5773 0.5773 -0.5773
vn -0.5773 0.5773 0.5773
vn 0.5773 -0.5773 0.5773
vn -0.5773 0.5773 -0.5773
vn -0.5773 -0.5773 -0.5773
vn -0.5773 -0.5773 0.5773
usemtl None
s 1
f 17/25/17 21/26/18 22/27/19
f 23/28/20 18/29/21 17/25/17
f 17/30/17 20/31/22 23/32/20
f 18/33/21 19/34/23 21/35/18
f 20/31/22 24/36/24 23/32/20
f 21/35/18 20/31/22 22/37/19
f 17/25/17 18/29/21 21/26/18
f 23/28/20 24/38/24 18/29/21
f 17/30/17 22/37/19 20/31/22
f 18/33/21 24/36/24 19/34/23
f 20/31/22 19/34/23 24/36/24
f 21/35/18 19/34/23 20/31/22
o Cube.004_Cube.005
v -11.828600 20.000000 -11.828600
v -15.414644 20.000000 -6.385279
v -15.414644 -20.000000 -6.385279
v -11.828600 -20.000000 -11.828600
v -20.000000 20.000000 -6.385279
v -20.000000 -20.000000 -6.385279
v -20.000000 20.000000 -11.828600
v -20.000000 -20.000000 -11.828600
vt 0.176071 0.551071
vt 0.846341 0.585092
vt 0.823929 0.551071
vt 0.375000 0.198929
vt 0.625000 0.164908
vt 0.375000 0.164908
vt 0.125000 0.551071
vt 0.153658 0.585092
vt 0.875000 0.551071
vt 0.125000 0.585092
vt 0.625000 0.198929
vt 0.875000 0.585092
vn -0.7336 0.5527 0.3952
vn -0.3742 -0.6143 -0.6947
vn -0.7337 -0.5527 0.3952
vn 0.5773 0.5773 0.5773
vn 0.5773 -0.5773 -0.5773
vn 0.5773 0.5773 -0.5773
vn -0.3742 0.6143 -0.6947
vn 0.5773 -0.5773 0.5773
usemtl None
s 1
f 28/39/25 26/40/26 25/41/27
f 32/42/28 29/43/29 30/44/30
f 32/45/28 27/46/31 28/39/25
f 26/40/26 31/47/32 25/41/27
f 30/48/30 26/40/26 27/46/31
f 25/41/27 32/45/28 28/39/25
f 28/39/25 27/46/31 26/40/26
f 32/42/28 31/49/32 29/43/29
f 32/45/28 30/48/30 27/46/31
f 26/40/26 29/50/29 31/47/32
f 30/48/30 29/43/29 26/40/26
f 25/41/27 31/49/32 32/45/28
o Cube.005_Cube.006
v -20.000000 -20.000000 0.000000
v -20.000000 20.000000 0.000000
v -16.725252 20.000000 0.000000
v -15.414644 20.000000 -6.385279
v -16.725252 -20.000000 0.000000
v -15.414644 -20.000000 -6.385279
v -20.000000 20.000000 -6.385279
v -20.000000 -20.000000 -6.385279
vt 0.153658 0.585092
vt 0.854533 0.625000
vt 0.846341 0.585092
vt 0.375000 0.164908
vt 0.625000 0.125000
vt 0.375000 0.125000
vt 0.125000 0.585092
vt 0.145467 0.625000
vt 0.875000 0.585092
vt 0.875000 0.625000
vt 0.125000 0.625000
vt 0.625000 0.164908
vn -0.6381 0.5674 0.5204
vn -0.5109 -0.5887 -0.6264
vn -0.6381 -0.5674 0.5204
vn 0.5773 0.5773 0.5773
vn 0.5773 -0.5773 -0.5773
vn 0.5773 0.5773 -0.5773
vn -0.5109 0.5887 -0.6264
vn 0.5773 -0.5773 0.5773
usemtl None
s 1
f 38/51/33 35/52/34 36/53/35
f 40/54/36 34/55/37 33/56/38
f 40/57/36 37/58/39 38/51/33
f 35/52/34 39/59/40 36/53/35
f 34/60/37 37/58/39 33/61/38
f 36/53/35 40/57/36 38/51/33
f 38/51/33 37/58/39 35/52/34
f 40/54/36 39/62/40 34/55/37
f 40/57/36 33/61/38 37/58/39
f 35/52/34 34/60/37 39/59/40
f 34/60/37 35/52/34 37/58/39
f 36/53/35 39/62/40 40/57/36
o Cube.006_Cube.007
v -20.000000 -20.000000 0.000000
v -20.000000 20.000000 0.000000
v -16.725252 20.000000 0.000000
v -15.414644 20.000000 6.385279
v -16.725252 -20.000000 0.000000
v -15.414644 -20.000000 6.385279
v -20.000000 20.000000 6.385279
v -20.000000 -20.000000 6.385279
vt 0.375000 0.125000
vt 0.625000 0.085092
vt 0.375000 0.085092
vt 0.145467 0.625000
vt 0.846341 0.664908
vt 0.854533 0.625000
vt 0.125000 0.664908
vt 0.153658 0.664908
vt 0.875000 0.664908
vt 0.875000 0.625000
vt 0.125000 0.625000
vt 0.625000 0.125000
vn 0.5773 0.5773 0.5773
vn 0.5773 -0.5773 -0.5773
vn 0.5773 0.5773 -0.5773
vn -0.5109 0.5887 0.6264
vn -0.6381 -0.5674 -0.5204
vn -0.5109 -0.5887 0.6264
vn -0.6381 0.5674 -0.5204
vn 0.5773 -0.5773 0.5773
usemtl None
s 1
f 41/63/41 47/64/42 48/65/43
f 45/66/44 44/67/45 43/68/46
f 45/66/44 48/69/43 46/70/47
f 43/68/46 47/71/42 42/72/48
f 48/69/43 44/67/45 46/70/47
f 45/66/44 42/72/48 41/73/41
f 41/63/41 42/74/48 47/64/42
f 45/66/44 46/70/47 44/67/45
f 45/66/44 41/73/41 48/69/43
f 43/68/46 44/67/45 47/71/42
f 48/69/43 47/64/42 44/67/45
f 45/66/44 43/68/46 42/72/48
o Cube.007_Cube.008
v -15.414644 20.000000 6.385279
v -11.828600 20.000000 11.828600
v -15.414644 -20.000000 6.385279
v -11.828600 -20.000000 11.828600
v -20.000000 -20.000000 11.828600
v -20.000000 20.000000 11.828600
v -20.000000 20.000000 6.385279
v -20.000000 -20.000000 6.385279
vt 0.153658 0.664908
vt 0.823929 0.698929
vt 0.846341 0.664908
vt 0.375000 0.085092
vt 0.625000 0.051071
vt 0.375000 0.051071
vt 0.875000 0.698929
vt 0.875000 0.664908
vt 0.125000 0.698929
vt 0.176071 0.698929
vt 0.125000 0.664908
vt 0.625000 0.085092
vn -0.3742 0.6143 0.6947
vn -0.7336 -0.5527 -0.3952
vn -0.3742 -0.6143 0.6947
vn 0.5773 0.5773 0.5773
vn 0.5773 -0.5773 -0.5773
vn 0.5773 0.5773 -0.5773
vn 0.5773 -0.5773 0.5773
vn -0.7336 0.5527 -0.3952
usemtl None
s 1
f 51/75/49 50/76/50 49/77/51
f 56/78/52 54/79/53 53/80/54
f 49/77/51 54/81/53 55/82/55
f 51/75/49 53/83/54 52/84/56
f 53/83/54 50/76/50 52/84/56
f 49/77/51 56/85/52 51/75/49
f 51/75/49 52/84/56 50/76/50
f 56/78/52 55/86/55 54/79/53
f 49/77/51 50/76/50 54/81/53
f 51/75/49 56/85/52 53/83/54
f 53/83/54 54/79/53 50/76/50
f 49/77/51 55/86/55 56/85/52
o Cube.008_Cube.009
v -20.000000 -20.000000 20.000000
v -20.000000 20.000000 20.000000
v -11.828600 20.000000 11.828600
v -11.828600 -20.000000 11.828600
v -11.828600 20.000000 20.000000
v -11.828600 -20.000000 20.000000
v -20.000000 -20.000000 11.828600
v -20.000000 20.000000 11.828600
vt 0.375000 1.000000
vt 0.625000 0.948929
vt 0.375000 0.948929
vt 0.375000 0.051071
vt 0.625000 0.000000
vt 0.375000 0.000000
vt 0.823929 0.698929
vt 0.875000 0.750000
vt 0.875000 0.698929
vt 0.125000 0.750000
vt 0.176071 0.698929
vt 0.125000 0.698929
vt 0.176071 0.750000
vt 0.823929 0.750000
vt 0.625000 1.000000
vt 0.625000 0.051071
vn 0.5773 0.5773 -0.5773
vn -0.5773 -0.5773 -0.5773
vn -0.5773 0.5773 -0.5773
vn 0.5773 0.5773 0.5773
vn 0.5773 -0.5773 -0.5773
vn -0.5773 -0.5773 0.5773
vn 0.5773 -0.5773 0.5773
vn -0.5773 0.5773 0.5773
usemtl None
s 1
f 57/87/57 61/88/58 62/89/59
f 63/90/60 58/91/61 57/92/57
f 59/93/62 58/94/61 64/95/63
f 57/96/57 60/97/64 63/98/60
f 59/93/62 62/99/59 61/100/58
f 63/98/60 59/93/62 64/95/63
f 57/87/57 58/101/61 61/88/58
f 63/90/60 64/102/63 58/91/61
f 59/93/62 61/100/58 58/94/61
f 57/96/57 62/99/59 60/97/64
f 59/93/62 60/97/64 62/99/59
f 63/98/60 60/97/64 59/93/62
o Cube.009_Cube.010
v -11.828600 20.000000 11.828600
v -6.385279 20.000000 15.414644
v -6.385279 -20.000000 15.414644
v -11.828600 -20.000000 11.828600
v -6.385279 20.000000 20.000000
v -6.385279 -20.000000 20.000000
v -11.828600 20.000000 20.000000
v -11.828600 -20.000000 20.000000
vt 0.176071 0.698929
vt 0.789908 0.721342
vt 0.823929 0.698929
vt 0.375000 0.948929
vt 0.625000 0.914908
vt 0.375000 0.914908
vt 0.823929 0.750000
vt 0.789908 0.750000
vt 0.176071 0.750000
vt 0.210092 0.721342
vt 0.210092 0.750000
vt 0.625000 0.948929
vn 0.3952 0.5527 0.7336
vn -0.6947 -0.6143 0.3742
vn 0.3952 -0.5527 0.7336
vn 0.5773 0.5773 -0.5773
vn -0.5773 -0.5773 -0.5773
vn -0.5773 0.5773 -0.5773
vn 0.5773 -0.5773 -0.5773
vn -0.6947 0.6143 0.3742
usemtl None
s 1
f 68/103/65 66/104/66 65/105/67
f 72/106/68 69/107/69 70/108/70
f 71/109/71 66/104/66 69/110/69
f 72/111/68 67/112/72 68/103/65
f 70/113/70 66/104/66 67/112/72
f 65/105/67 72/111/68 68/103/65
f 68/103/65 67/112/72 66/104/66
f 72/106/68 71/114/71 69/107/69
f 71/109/71 65/105/67 66/104/66
f 72/111/68 70/113/70 67/112/72
f 70/113/70 69/107/69 66/104/66
f 65/105/67 71/114/71 72/111/68
o Cube.010_Cube.011
v 0.000000 -20.000000 20.000000
v 0.000000 20.000000 20.000000
v 0.000000 20.000000 16.725252
v -6.385279 20.000000 15.414644
v 0.000000 -20.000000 16.725252
v -6.385279 -20.000000 15.414644
v -6.385279 20.000000 20.000000
v -6.385279 -20.000000 20.000000
vt 0.210092 0.721342
vt 0.750000 0.729533
vt 0.789908 0.721342
vt 0.375000 0.914908
vt 0.625000 0.875000
vt 0.375000 0.875000
vt 0.210092 0.750000
vt 0.250000 0.729533
vt 0.789908 0.750000
vt 0.750000 0.750000
vt 0.250000 0.750000
vt 0.625000 0.914908
vn 0.5204 0.5674 0.6381
vn -0.6264 -0.5887 0.5109
vn 0.5204 -0.5674 0.6381
vn 0.5773 0.5773 -0.5773
vn -0.5773 -0.5773 -0.5773
vn -0.5773 0.5773 -0.5773
vn -0.6264 0.5887 0.5109
vn 0.5773 -0.5773 -0.5773
usemtl None
s 1
f 78/115/73 75/116/74 76/117/75
f 80/118/76 74/119/77 73/120/78
f 80/121/76 77/122/79 78/115/73
f 75/116/74 79/123/80 76/117/75
f 74/124/77 77/122/79 73/125/78
f 76/117/75 80/121/76 78/115/73
f 78/115/73 77/122/79 75/116/74
f 80/118/76 79/126/80 74/119/77
f 80/121/76 73/125/78 77/122/79
f 75/116/74 74/124/77 79/123/80
f 74/124/77 75/116/74 77/122/79
f 76/117/75 79/126/80 80/121/76
o Cube.011_Cube.012
v 0.000000 -20.000000 20.000000
v 0.000000 20.000000 20.000000
v 0.000000 20.000000 16.725252
v 6.385279 20.000000 15.414644
v 0.000000 -20.000000 16.725252
v 6.385279 -20.000000 15.414644
v 6.385279 20.000000 20.000000
v 6.385279 -20.000000 20.000000
vt 0.375000 0.875000
vt 0.625000 0.835092
vt 0.375000 0.835092
vt 0.250000 0.729533
vt 0.710092 0.721342
vt 0.750000 0.729533
vt 0.710092 0.750000
vt 0.289908 0.750000
vt 0.289908 0.721342
vt 0.750000 0.750000
vt 0.250000 0.750000
vt 0.625000 0.875000
vn 0.5773 0.5773 -0.5773
vn -0.5773 -0.5773 -0.5773
vn -0.5773 0.5773 -0.5773
vn 0.6264 0.5887 0.5109
vn -0.5204 -0.5674 0.6381
vn 0.6264 -0.5887 0.5109
vn -0.5204 0.5674 0.6381
vn 0.5773 -0.5773 -0.5773
usemtl None
s 1
f 81/127/81 87/128/82 88/129/83
f 85/130/84 84/131/85 83/132/86
f 87/133/82 83/132/86 84/131/85
f 85/130/84 88/134/83 86/135/87
f 88/134/83 84/131/85 86/135/87
f 85/130/84 82/136/88 81/137/81
f 81/127/81 82/138/88 87/128/82
f 85/130/84 86/135/87 84/131/85
f 87/133/82 82/136/88 83/132/86
f 85/130/84 81/137/81 88/134/83
f 88/134/83 87/128/82 84/131/85
f 85/130/84 83/132/86 82/136/88
o Cube.012_Cube.013
v 6.385279 20.000000 15.414644
v 11.828600 20.000000 11.828600
v 11.828600 -20.000000 11.828600
v 6.385279 -20.000000 15.414644
v 11.828600 -20.000000 20.000000
v 11.828600 20.000000 20.000000
v 6.385279 20.000000 20.000000
v 6.385279 -20.000000 20.000000
vt 0.289908 0.721342
vt 0.676071 0.698929
vt 0.710092 0.721342
vt 0.375000 0.835092
vt 0.625000 0.801071
vt 0.375000 0.801071
vt 0.323929 0.750000
vt 0.289908 0.750000
vt 0.676071 0.750000
vt 0.323929 0.698929
vt 0.625000 0.835092
vt 0.710092 0.750000
vn 0.6947 0.6143 0.3742
vn -0.3952 -0.5527 0.7336
vn 0.6947 -0.6143 0.3742
vn 0.5773 0.5773 -0.5773
vn -0.5773 -0.5773 -0.5773
vn -0.5773 0.5773 -0.5773
vn -0.3952 0.5527 0.7336
vn 0.5773 -0.5773 -0.5773
usemtl None
s 1
f 92/139/89 90/140/90 89/141/91
f 96/142/92 94/143/93 93/144/94
f 93/145/94 92/139/89 96/146/92
f 94/147/93 89/141/91 90/140/90
f 93/145/94 90/140/90 91/148/95
f 89/141/91 96/146/92 92/139/89
f 92/139/89 91/148/95 90/140/90
f 96/142/92 95/149/96 94/143/93
f 93/145/94 91/148/95 92/139/89
f 94/147/93 95/150/96 89/141/91
f 93/145/94 94/143/93 90/140/90
f 89/141/91 95/149/96 96/146/92
o Cube.013_Cube.014
v 20.000000 -20.000000 20.000000
v 20.000000 20.000000 20.000000
v 11.828600 20.000000 11.828600
v 11.828600 -20.000000 11.828600
v 20.000000 20.000000 11.828600
v 20.000000 -20.000000 11.828600
v 11.828600 -20.000000 20.000000
v 11.828600 20.000000 20.000000
vt 0.375000 0.750000
vt 0.625000 0.698929
vt 0.375000 0.698929
vt 0.375000 0.801071
vt 0.625000 0.750000
vt 0.676071 0.698929
vt 0.323929 0.698929
vt 0.323929 0.750000
vt 0.676071 0.750000
vt 0.625000 0.801071
vn -0.5773 0.5773 -0.5773
vn -0.5773 -0.5773 0.5773
vn -0.5773 0.5773 0.5773
vn 0.5773 0.5773 -0.5773
vn -0.5773 -0.5773 -0.5773
vn 0.5773 -0.5773 0.5773
vn 0.5773 0.5773 0.5773
vn 0.5773 -0.5773 -0.5773
usemtl None
s 1
f 97/151/97 101/152/98 102/153/99
f 103/154/100 98/155/101 97/151/97
f 98/155/101 99/156/102 101/152/98
f 100/157/103 97/151/97 102/153/99
f 99/156/102 102/153/99 101/152/98
f 103/158/100 99/156/102 104/159/104
f 97/151/97 98/155/101 101/152/98
f 103/154/100 104/160/104 98/155/101
f 98/155/101 104/159/104 99/156/102
f 100/157/103 103/158/100 97/151/97
f 99/156/102 100/157/103 102/153/99
f 103/158/100 100/157/103 99/156/102
o Cube.014_Cube.015
v 15.414644 20.000000 6.385279
v 11.828600 20.000000 11.828600
v 15.414644 -20.000000 6.385279
v 11.828600 -20.000000 11.828600
v 20.000000 20.000000 6.385279
v 20.000000 -20.000000 6.385279
v 20.000000 20.000000 11.828600
v 20.000000 -20.000000 11.828600
vt 0.323929 0.698929
vt 0.653658 0.664908
vt 0.676071 0.698929
vt 0.375000 0.698929
vt 0.625000 0.664908
vt 0.375000 0.664908
vt 0.346342 0.664908
vt 0.625000 0.698929
vn 0.7336 0.5527 -0.3952
vn 0.3742 -0.6143 0.6947
vn 0.7337 -0.5527 -0.3952
vn -0.5773 0.5773 -0.5773
vn -0.5773 -0.5773 0.5773
vn -0.5773 0.5773 0.5773
vn 0.3742 0.6143 0.6947
vn -0.5773 -0.5773 -0.5773
usemtl None
s 1
f 108/161/105 105/162/106 106/163/107
f 112/164/108 109/165/109 110/166/110
f 107/167/111 112/164/108 110/166/110
f 105/162/106 111/168/112 106/163/107
f 106/163/107 112/164/108 108/161/105
f 110/166/110 105/162/106 107/167/111
f 108/161/105 107/167/111 105/162/106
f 112/164/108 111/168/112 109/165/109
f 107/167/111 108/161/105 112/164/108
f 105/162/106 109/165/109 111/168/112
f 106/163/107 111/168/112 112/164/108
f 110/166/110 109/165/109 105/162/106
o Cube.015_Cube.016
v 20.000000 -20.000000 0.000000
v 20.000000 20.000000 0.000000
v 16.725252 20.000000 0.000000
v 15.414644 20.000000 6.385279
v 16.725252 -20.000000 0.000000
v 15.414644 -20.000000 6.385279
v 20.000000 20.000000 6.385279
v 20.000000 -20.000000 6.385279
vt 0.346342 0.664908
vt 0.645467 0.625000
vt 0.653658 0.664908
vt 0.375000 0.664908
vt 0.625000 0.625000
vt 0.375000 0.625000
vt 0.354533 0.625000
vt 0.625000 0.664908
vn 0.6381 0.5674 -0.5204
vn 0.5109 -0.5887 0.6264
vn 0.6381 -0.5674 -0.5204
vn -0.5773 0.5773 -0.5773
vn -0.5773 -0.5773 0.5773
vn -0.5773 0.5773 0.5773
vn 0.5109 0.5887 0.6264
vn -0.5773 -0.5773 -0.5773
usemtl None
s 1
f 118/169/113 115/170/114 116/171/115
f 120/172/116 114/173/117 113/174/118
f 117/175/119 120/172/116 113/174/118
f 115/170/114 119/176/120 116/171/115
f 114/173/117 117/175/119 113/174/118
f 116/171/115 120/172/116 118/169/113
f 118/169/113 117/175/119 115/170/114
f 120/172/116 119/176/120 114/173/117
f 117/175/119 118/169/113 120/172/116
f 115/170/114 114/173/117 119/176/120
f 114/173/117 115/170/114 117/175/119
f 116/171/115 119/176/120 120/172/116
o Cube.016_Cube.017
v 20.000000 -20.000000 0.000000
v 20.000000 20.000000 0.000000
v 16.725252 20.000000 0.000000
v 15.414644 20.000000 -6.385279
v 16.725252 -20.000000 0.000000
v 15.414644 -20.000000 -6.385279
v 20.000000 20.000000 -6.385279
v 20.000000 -20.000000 -6.385279
vt 0.375000 0.625000
vt 0.625000 0.585092
vt 0.375000 0.585092
vt 0.354533 0.625000
vt 0.653659 0.585092
vt 0.645467 0.625000
vt 0.346342 0.585092
vt 0.625000 0.625000
vn -0.5773 0.5773 -0.5773
vn -0.5773 -0.5773 0.5773
vn -0.5773 0.5773 0.5773
vn 0.5109 0.5887 -0.6264
vn 0.6381 -0.5674 0.5204
vn 0.5109 -0.5887 -0.6264
vn 0.6381 0.5674 0.5204
vn -0.5773 -0.5773 -0.5773
usemtl None
s 1
f 121/177/121 127/178/122 128/179/123
f 125/180/124 124/181/125 123/182/126
f 127/178/122 123/182/126 124/181/125
f 125/180/124 128/179/123 126/183/127
f 125/180/124 122/184/128 121/177/121
f 128/179/123 124/181/125 126/183/127
f 121/177/121 122/184/128 127/178/122
f 125/180/124 126/183/127 124/181/125
f 127/178/122 122/184/128 123/182/126
f 125/180/124 121/177/121 128/179/123
f 125/180/124 123/182/126 122/184/128
f 128/179/123 127/178/122 124/181/125
o Cube.017_Cube.018
v 15.414644 20.000000 -6.385279
v 11.828600 20.000000 -11.828600
v 11.828600 -20.000000 -11.828600
v 15.414644 -20.000000 -6.385279
v 20.000000 -20.000000 -11.828600
v 20.000000 20.000000 -11.828600
v 20.000000 20.000000 -6.385279
v 20.000000 -20.000000 -6.385279
vt 0.346342 0.585092
vt 0.676071 0.551071
vt 0.653659 0.585092
vt 0.375000 0.585092
vt 0.625000 0.551071
vt 0.375000 0.551071
vt 0.323929 0.551071
vt 0.625000 0.585092
vn 0.3742 0.6143 -0.6947
vn 0.7337 -0.5527 0.3952
vn 0.3742 -0.6143 -0.6947
vn -0.5773 0.5773 -0.5773
vn -0.5773 -0.5773 0.5773
vn -0.5773 0.5773 0.5773
vn 0.7336 0.5527 0.3952
vn -0.5773 -0.5773 -0.5773
usemtl None
s 1
f 132/185/129 130/186/130 129/187/131
f 136/188/132 134/189/133 133/190/134
f 134/189/133 129/187/131 130/186/130
f 132/185/129 133/190/134 131/191/135
f 133/190/134 130/186/130 131/191/135
f 129/187/131 136/188/132 132/185/129
f 132/185/129 131/191/135 130/186/130
f 136/188/132 135/192/136 134/189/133
f 134/189/133 135/192/136 129/187/131
f 132/185/129 136/188/132 133/190/134
f 133/190/134 134/189/133 130/186/130
f 129/187/131 135/192/136 136/188/132
o Cube.018_Cube.019
v 20.000000 -20.000000 -20.000000
v 20.000000 20.000000 -20.000000
v 11.828600 20.000000 -11.828600
v 11.828600 -20.000000 -11.828600
v 11.828600 20.000000 -20.000000
v 11.828600 -20.000000 -20.000000
v 20.000000 -20.000000 -11.828600
v 20.000000 20.000000 -11.828600
vt 0.375000 0.500000
vt 0.625000 0.448929
vt 0.375000 0.448929
vt 0.375000 0.551071
vt 0.625000 0.500000
vt 0.323929 0.551071
vt 0.676071 0.551071
vt 0.676071 0.500000
vt 0.625000 0.551071
vt 0.323929 0.500000
vn -0.5773 0.5773 0.5773
vn 0.5773 -0.5773 0.5773
vn 0.5773 0.5773 0.5773
vn -0.5773 0.5773 -0.5773
vn -0.5773 -0.5773 0.5773
vn 0.5773 0.5773 -0.5773
vn 0.5773 -0.5773 -0.5773
vn -0.5773 -0.5773 -0.5773
usemtl None
s 1
f 137/193/137 141/194/138 142/195/139
f 143/196/140 138/197/141 137/193/137
f 137/193/137 140/198/142 143/196/140
f 138/197/141 139/199/143 141/200/138
f 143/196/140 139/199/143 144/201/144
f 139/199/143 142/202/139 141/200/138
f 137/193/137 138/197/141 141/194/138
f 143/196/140 144/201/144 138/197/141
f 137/193/137 142/202/139 140/198/142
f 138/197/141 144/201/144 139/199/143
f 143/196/140 140/198/142 139/199/143
f 139/199/143 140/198/142 142/202/139
o Cube.019_Cube.020
v 11.828600 20.000000 -11.828600
v 6.385279 20.000000 -15.414644
v 6.385279 -20.000000 -15.414644
v 11.828600 -20.000000 -11.828600
v 6.385279 20.000000 -20.000000
v 6.385279 -20.000000 -20.000000
v 11.828600 20.000000 -20.000000
v 11.828600 -20.000000 -20.000000
vt 0.323929 0.551071
vt 0.710092 0.528659
vt 0.676071 0.551071
vt 0.375000 0.448929
vt 0.625000 0.414908
vt 0.375000 0.414908
vt 0.323929 0.500000
vt 0.289908 0.528658
vt 0.676071 0.500000
vt 0.289908 0.500000
vt 0.625000 0.448929
vt 0.710092 0.500000
vn -0.3952 0.5527 -0.7336
vn 0.6947 -0.6143 -0.3742
vn -0.3952 -0.5527 -0.7336
vn -0.5773 0.5773 0.5773
vn 0.5773 -0.5773 0.5773
vn 0.5773 0.5773 0.5773
vn 0.6947 0.6143 -0.3742
vn -0.5773 -0.5773 0.5773
usemtl None
s 1
f 148/203/145 146/204/146 145/205/147
f 152/206/148 149/207/149 150/208/150
f 152/209/148 147/210/151 148/203/145
f 146/204/146 151/211/152 145/205/147
f 150/212/150 146/204/146 147/210/151
f 145/205/147 152/209/148 148/203/145
f 148/203/145 147/210/151 146/204/146
f 152/206/148 151/213/152 149/207/149
f 152/209/148 150/212/150 147/210/151
f 146/204/146 149/214/149 151/211/152
f 150/212/150 149/207/149 146/204/146
f 145/205/147 151/213/152 152/209/148
o Cube.020_Cube.021
v 0.000000 -20.000000 -20.000000
v 0.000000 20.000000 -20.000000
v 0.000000 20.000000 -16.725252
v 6.385279 20.000000 -15.414644
v 0.000000 -20.000000 -16.725252
v 6.385279 -20.000000 -15.414644
v 6.385279 20.000000 -20.000000
v 6.385279 -20.000000 -20.000000
vt 0.289908 0.528658
vt 0.750000 0.520467
vt 0.710092 0.528659
vt 0.375000 0.414908
vt 0.625000 0.375000
vt 0.375000 0.375000
vt 0.710092 0.500000
vt 0.289908 0.500000
vt 0.250000 0.520467
vt 0.750000 0.500000
vt 0.250000 0.500000
vt 0.625000 0.414908
vn -0.5204 0.5674 -0.6381
vn 0.6264 -0.5887 -0.5109
vn -0.5204 -0.5674 -0.6381
vn -0.5773 0.5773 0.5773
vn 0.5773 -0.5773 0.5773
vn 0.5773 0.5773 0.5773
vn -0.5773 -0.5773 0.5773
vn 0.6264 0.5887 -0.5109
usemtl None
s 1
f 158/215/153 155/216/154 156/217/155
f 160/218/156 154/219/157 153/220/158
f 155/216/154 159/221/159 156/217/155
f 160/222/156 157/223/160 158/215/153
f 154/224/157 157/223/160 153/225/158
f 156/217/155 160/222/156 158/215/153
f 158/215/153 157/223/160 155/216/154
f 160/218/156 159/226/159 154/219/157
f 155/216/154 154/224/157 159/221/159
f 160/222/156 153/225/158 157/223/160
f 154/224/157 155/216/154 157/223/160
f 156/217/155 159/226/159 160/222/156
