# Blender v2.93.3 OBJ File: ''
# www.blender.org
mtllib block.mtl
o Cube_Cube.001
v -20.000000 -20.000000 20.000000
v -20.000000 20.000000 20.000000
v -20.000000 -20.000000 -20.000000
v -20.000000 20.000000 -20.000000
v 20.000000 -20.000000 20.000000
v 20.000000 20.000000 20.000000
v 20.000000 -20.000000 -20.000000
v 20.000000 20.000000 -20.000000
v -20.000000 -20.000000 0.000000
v -20.000000 20.000000 0.000000
v 20.000000 -20.000000 0.000000
v 20.000000 20.000000 0.000000
v 0.000000 -20.000000 -20.000000
v 0.000000 20.000000 -20.000000
v 0.000000 -20.000000 20.000000
v 0.000000 20.000000 20.000000
v 16.725252 20.000000 0.000000
v 0.000000 20.000000 -16.725252
v -16.725252 20.000000 0.000000
v 0.000000 20.000000 16.725252
v 15.414644 20.000000 -6.385279
v 11.828600 20.000000 -11.828600
v 15.414644 20.000000 6.385279
v -6.385279 20.000000 -15.414644
v -11.828600 20.000000 -11.828600
v 6.385279 20.000000 -15.414644
v -15.414644 20.000000 6.385279
v -11.828600 20.000000 11.828600
v -15.414644 20.000000 -6.385279
v 6.385279 20.000000 15.414644
v 11.828600 20.000000 11.828600
v -6.385279 20.000000 15.414644
v -16.725252 -20.000000 0.000000
v 0.000000 -20.000000 -16.725252
v 16.725252 -20.000000 0.000000
v 0.000000 -20.000000 16.725252
v -15.414644 -20.000000 -6.385279
v -11.828600 -20.000000 -11.828600
v -15.414644 -20.000000 6.385279
v 6.385279 -20.000000 -15.414644
v 11.828600 -20.000000 -11.828600
v -6.385279 -20.000000 -15.414644
v 15.414644 -20.000000 6.385279
v 11.828600 -20.000000 11.828600
v 15.414644 -20.000000 -6.385279
v -6.385279 -20.000000 15.414644
v -11.828600 -20.000000 11.828600
v 6.385279 -20.000000 15.414644
v -6.385279 20.000000 20.000000
v -6.385279 -20.000000 20.000000
v -11.828600 20.000000 20.000000
v -11.828600 -20.000000 20.000000
v -20.000000 -20.000000 11.828600
v -20.000000 20.000000 11.828600
v -20.000000 20.000000 6.385279
v -20.000000 -20.000000 6.385279
v -20.000000 20.000000 -6.385279
v -20.000000 -20.000000 -6.385279
v -20.000000 20.000000 -11.828600
v -20.000000 -20.000000 -11.828600
v -11.828600 -20.000000 -20.000000
v -11.828600 20.000000 -20.000000
v -6.385279 20.000000 -20.000000
v -6.385279 -20.000000 -20.000000
v 6.385279 20.000000 -20.000000
v 6.385279 -20.000000 -20.000000
v 11.828600 20.000000 -20.000000
v 11.828600 -20.000000 -20.000000
v 20.000000 -20.000000 -11.828600
v 20.000000 20.000000 -11.828600
v 20.000000 20.000000 -6.385279
v 20.000000 -20.000000 -6.385279
v 20.000000 20.000000 6.385279
v 20.000000 -20.000000 6.385279
v 20.000000 20.000000 11.828600
v 20.000000 -20.000000 11.828600
v 11.828600 -20.000000 20.000000
v 11.828600 20.000000 20.000000
v 6.385279 20.000000 20.000000
v 6.385279 -20.000000 20.000000
vt 0.625000 0.198929
vt 0.375000 0.250000
vt 0.375000 0.198929
vt 0.625000 0.448929
vt 0.375000 0.500000
vt 0.375000 0.448929
vt 0.625000 0.698929
vt 0.375000 0.750000
vt 0.375000 0.698929
vt 0.625000 0.948929
vt 0.375000 1.000000
vt 0.375000 0.948929
vt 0.625000 0.585092
vt 0.375000 0.625000
vt 0.375000 0.585092
vt 0.625000 0.085092
vt 0.375000 0.125000
vt 0.375000 0.085092
vt 0.625000 0.835092
vt 0.375000 0.875000
vt 0.375000 0.835092
vt 0.625000 0.335092
vt 0.375000 0.375000
vt 0.375000 0.335092
vt 0.846341 0.664908
vt 0.145467 0.625000
vt 0.854533 0.625000
vt 0.823929 0.698929
vt 0.153658 0.664908
vt 0.789908 0.721342
vt 0.176071 0.698929
vt 0.750000 0.729533
vt 0.210092 0.721342
vt 0.710092 0.721342
vt 0.250000 0.729533
vt 0.676071 0.698929
vt 0.289908 0.721342
vt 0.653658 0.664908
vt 0.323929 0.698929
vt 0.645467 0.625000
vt 0.346342 0.664908
vt 0.653659 0.585092
vt 0.354533 0.625000
vt 0.676071 0.551071
vt 0.346342 0.585092
vt 0.710092 0.528659
vt 0.323929 0.551071
vt 0.750000 0.520467
vt 0.289908 0.528658
vt 0.789908 0.528658
vt 0.250000 0.520467
vt 0.823929 0.551071
vt 0.210092 0.528659
vt 0.846341 0.585092
vt 0.176071 0.551071
vt 0.153658 0.585092
vt 0.625000 0.875000
vt 0.375000 0.914908
vt 0.625000 0.914908
vt 0.625000 0.000000
vt 0.375000 0.051071
vt 0.375000 0.000000
vt 0.625000 0.051071
vt 0.625000 0.125000
vt 0.375000 0.164908
vt 0.625000 0.164908
vt 0.625000 0.250000
vt 0.375000 0.301071
vt 0.625000 0.301071
vt 0.625000 0.375000
vt 0.375000 0.414908
vt 0.625000 0.414908
vt 0.625000 0.500000
vt 0.375000 0.551071
vt 0.625000 0.551071
vt 0.625000 0.625000
vt 0.375000 0.664908
vt 0.625000 0.664908
vt 0.625000 0.750000
vt 0.375000 0.801071
vt 0.625000 0.801071
vt 0.710092 0.750000
vt 0.823929 0.750000
vt 0.789908 0.750000
vt 0.323929 0.500000
vt 0.875000 0.750000
vt 0.875000 0.698929
vt 0.125000 0.551071
vt 0.125000 0.585092
vt 0.176071 0.500000
vt 0.125000 0.664908
vt 0.125000 0.625000
vt 0.875000 0.551071
vt 0.289908 0.750000
vt 0.250000 0.750000
vt 0.710092 0.500000
vt 0.750000 0.500000
vt 0.676071 0.500000
vt 0.125000 0.500000
vt 0.875000 0.664908
vt 0.210092 0.500000
vt 0.250000 0.500000
vt 0.289908 0.500000
vt 0.176071 0.750000
vt 0.210092 0.750000
vt 0.125000 0.698929
vt 0.875000 0.500000
vt 0.875000 0.585092
vt 0.875000 0.625000
vt 0.823929 0.500000
vt 0.789908 0.500000
vt 0.750000 0.750000
vt 0.323929 0.750000
vt 0.676071 0.750000
vt 0.125000 0.750000
vt 0.625000 1.000000
vn -1.0000 0.0000 0.0000
vn 0.0000 0.0000 -1.0000
vn 1.0000 0.0000 0.0000
vn 0.0000 0.0000 1.0000
vn 0.9796 0.0000 -0.2011
vn 0.8351 0.0000 -0.5501
vn 0.5501 0.0000 -0.8351
vn 0.2011 0.0000 -0.9796
vn -0.2011 0.0000 -0.9796
vn -0.5501 0.0000 -0.8351
vn -0.8351 0.0000 -0.5501
vn -0.9796 0.0000 -0.2011
vn -0.9796 0.0000 0.2011
vn -0.8351 0.0000 0.5501
vn -0.5501 0.0000 0.8351
vn -0.2011 0.0000 0.9796
vn 0.2011 0.0000 0.9796
vn 0.5501 0.0000 0.8351
vn 0.8351 0.0000 0.5501
vn 0.9796 0.0000 0.2011
vn 0.0000 1.0000 0.0000
vn 0.0000 -1.0000 0.0000
usemtl None
s off
f 59/1/1 3/2/1 60/3/1
f 67/4/2 7/5/2 68/6/2
f 75/7/3 5/8/3 76/9/3
f 51/10/4 1/11/4 52/12/4
f 71/13/3 11/14/3 72/15/3
f 55/16/1 9/17/1 56/18/1
f 79/19/4 15/20/4 80/21/4
f 63/22/2 13/23/2 64/24/2
f 27/25/5 33/26/5 19/27/5
f 28/28/6 39/29/6 27/25/6
f 32/30/7 47/31/7 28/28/7
f 20/32/8 46/33/8 32/30/8
f 30/34/9 36/35/9 20/32/9
f 31/36/10 48/37/10 30/34/10
f 23/38/11 44/39/11 31/36/11
f 17/40/12 43/41/12 23/38/12
f 21/42/13 35/43/13 17/40/13
f 22/44/14 45/45/14 21/42/14
f 26/46/15 41/47/15 22/44/15
f 18/48/16 40/49/16 26/46/16
f 24/50/17 34/51/17 18/48/17
f 25/52/18 42/53/18 24/50/18
f 29/54/19 38/55/19 25/52/19
f 19/27/20 37/56/20 29/54/20
f 16/57/4 50/58/4 15/20/4
f 49/59/4 52/12/4 50/58/4
f 2/60/1 53/61/1 1/62/1
f 54/63/1 56/18/1 53/61/1
f 10/64/1 58/65/1 9/17/1
f 57/66/1 60/3/1 58/65/1
f 4/67/2 61/68/2 3/2/2
f 62/69/2 64/24/2 61/68/2
f 14/70/2 66/71/2 13/23/2
f 65/72/2 68/6/2 66/71/2
f 8/73/3 69/74/3 7/5/3
f 70/75/3 72/15/3 69/74/3
f 12/76/3 74/77/3 11/14/3
f 73/78/3 76/9/3 74/77/3
f 6/79/4 77/80/4 5/8/4
f 78/81/4 80/21/4 77/80/4
f 20/32/21 79/82/21 30/34/21
f 31/36/21 6/79/21 75/7/21
f 32/30/21 51/83/21 49/84/21
f 40/49/22 68/85/22 41/47/22
f 35/43/22 74/77/22 43/41/22
f 17/40/21 71/13/21 21/42/21
f 2/86/21 28/28/21 54/87/21
f 60/88/22 37/56/22 58/89/22
f 61/90/22 42/53/22 38/55/22
f 33/26/22 56/91/22 9/92/22
f 33/26/22 58/89/22 37/56/22
f 41/47/22 7/5/22 69/74/22
f 59/93/21 29/54/21 25/52/21
f 70/75/21 21/42/21 71/13/21
f 36/35/22 80/94/22 15/95/22
f 18/48/21 65/96/21 14/97/21
f 67/98/21 26/46/21 22/44/21
f 38/55/22 3/99/22 61/90/22
f 17/40/21 73/78/21 12/76/21
f 19/27/21 55/100/21 27/25/21
f 54/87/21 27/25/21 55/100/21
f 34/51/22 64/101/22 13/102/22
f 66/103/22 34/51/22 13/102/22
f 76/9/22 43/41/22 74/77/22
f 5/8/22 44/39/22 76/9/22
f 35/43/22 72/15/22 11/14/22
f 52/104/22 46/33/22 50/105/22
f 36/35/22 50/105/22 46/33/22
f 39/29/22 53/106/22 56/91/22
f 25/52/21 4/107/21 59/93/21
f 19/27/21 57/108/21 10/109/21
f 24/50/21 62/110/21 25/52/21
f 63/111/21 18/48/21 14/97/21
f 69/74/22 45/45/22 41/47/22
f 20/32/21 49/84/21 16/112/21
f 22/44/21 8/73/21 67/98/21
f 48/37/22 77/113/22 80/94/22
f 23/38/21 75/7/21 73/78/21
f 78/114/21 30/34/21 79/82/21
f 47/31/22 1/115/22 53/106/22
f 59/1/1 4/67/1 3/2/1
f 67/4/2 8/73/2 7/5/2
f 75/7/3 6/79/3 5/8/3
f 51/10/4 2/116/4 1/11/4
f 71/13/3 12/76/3 11/14/3
f 55/16/1 10/64/1 9/17/1
f 79/19/4 16/57/4 15/20/4
f 63/22/2 14/70/2 13/23/2
f 27/25/5 39/29/5 33/26/5
f 28/28/6 47/31/6 39/29/6
f 32/30/7 46/33/7 47/31/7
f 20/32/8 36/35/8 46/33/8
f 30/34/9 48/37/9 36/35/9
f 31/36/10 44/39/10 48/37/10
f 23/38/11 43/41/11 44/39/11
f 17/40/12 35/43/12 43/41/12
f 21/42/13 45/45/13 35/43/13
f 22/44/14 41/47/14 45/45/14
f 26/46/15 40/49/15 41/47/15
f 18/48/16 34/51/16 40/49/16
f 24/50/17 42/53/17 34/51/17
f 25/52/18 38/55/18 42/53/18
f 29/54/19 37/56/19 38/55/19
f 19/27/20 33/26/20 37/56/20
f 16/57/4 49/59/4 50/58/4
f 49/59/4 51/10/4 52/12/4
f 2/60/1 54/63/1 53/61/1
f 54/63/1 55/16/1 56/18/1
f 10/64/1 57/66/1 58/65/1
f 57/66/1 59/1/1 60/3/1
f 4/67/2 62/69/2 61/68/2
f 62/69/2 63/22/2 64/24/2
f 14/70/2 65/72/2 66/71/2
f 65/72/2 67/4/2 68/6/2
f 8/73/3 70/75/3 69/74/3
f 70/75/3 71/13/3 72/15/3
f 12/76/3 73/78/3 74/77/3
f 73/78/3 75/7/3 76/9/3
f 6/79/4 78/81/4 77/80/4
f 78/81/4 79/19/4 80/21/4
f 20/32/21 16/112/21 79/82/21
f 31/36/21 78/114/21 6/79/21
f 32/30/21 28/28/21 51/83/21
f 40/49/22 66/103/22 68/85/22
f 35/43/22 11/14/22 74/77/22
f 17/40/21 12/76/21 71/13/21
f 2/86/21 51/83/21 28/28/21
f 60/88/22 38/55/22 37/56/22
f 61/90/22 64/101/22 42/53/22
f 33/26/22 39/29/22 56/91/22
f 33/26/22 9/92/22 58/89/22
f 41/47/22 68/85/22 7/5/22
f 59/93/21 57/108/21 29/54/21
f 70/75/21 22/44/21 21/42/21
f 36/35/22 48/37/22 80/94/22
f 18/48/21 26/46/21 65/96/21
f 67/98/21 65/96/21 26/46/21
f 38/55/22 60/88/22 3/99/22
f 17/40/21 23/38/21 73/78/21
f 19/27/21 10/109/21 55/100/21
f 54/87/21 28/28/21 27/25/21
f 34/51/22 42/53/22 64/101/22
f 66/103/22 40/49/22 34/51/22
f 76/9/22 44/39/22 43/41/22
f 5/8/22 77/113/22 44/39/22
f 35/43/22 45/45/22 72/15/22
f 52/104/22 47/31/22 46/33/22
f 36/35/22 15/95/22 50/105/22
f 39/29/22 47/31/22 53/106/22
f 25/52/21 62/110/21 4/107/21
f 19/27/21 29/54/21 57/108/21
f 24/50/21 63/111/21 62/110/21
f 63/111/21 24/50/21 18/48/21
f 69/74/22 72/15/22 45/45/22
f 20/32/21 32/30/21 49/84/21
f 22/44/21 70/75/21 8/73/21
f 48/37/22 44/39/22 77/113/22
f 23/38/21 31/36/21 75/7/21
f 78/114/21 31/36/21 30/34/21
f 47/31/22 52/104/22 1/115/22
