# Blender v2.93.4 OBJ File: 'car.blend'
# www.blender.org
mtllib car_phys.mtl
o Cube
v -26.575686 -20.416164 39.369995
v -21.260706 19.892488 39.369999
v 26.575686 -20.416164 39.369995
v 21.260706 19.892488 39.369999
v -28.300821 2.944820 39.369999
v 28.300821 2.944820 39.369999
v -26.575686 -20.416164 23.701820
v -21.260706 21.977285 23.701820
v 26.575686 -20.416164 23.701820
v 21.260706 21.977285 23.701820
v 28.300821 2.944820 23.701820
v -28.300821 2.944820 23.701820
v -21.260706 20.889286 -11.561532
v 26.575686 -20.416164 -11.561532
v -28.300821 2.944820 -11.561532
v -26.575686 -20.416164 -11.561532
v 21.260706 20.889286 -11.561532
v 28.300821 2.944820 -11.561532
v -21.260706 7.184870 -28.365421
v 26.575686 -20.416164 -28.365421
v -27.588282 1.860265 -28.365421
v -26.575686 -20.416164 -28.365421
v 21.260706 7.184870 -28.365421
v 27.588282 1.860265 -28.365421
v -26.575686 -20.416164 3.508547
v 21.260706 21.495396 3.508547
v 28.300821 2.944820 3.508547
v -21.260706 21.495396 3.508547
v 26.575686 -20.416164 3.508547
v -28.300821 2.944820 3.508547
v 28.300821 -9.965061 39.369999
v -28.300821 -9.965061 39.369999
v -28.300821 -9.965061 23.701820
v 28.300821 -9.965061 23.701820
v 28.300821 -9.965061 -11.561532
v -28.300821 -9.965061 -11.561532
v 27.982050 -10.450263 -28.365421
v -27.982050 -10.450263 -28.365421
v -28.300821 -9.965061 3.508547
v 28.300821 -9.965061 3.508547
v -28.300821 -2.633868 61.348881
v -25.140606 8.351818 61.348881
v 28.300821 -11.002212 61.348881
v 26.575686 -17.776745 61.348881
v -26.575686 -17.776745 61.348881
v 25.140606 8.351818 61.348881
v -28.300821 -11.002212 61.348881
v 28.300821 -2.633868 61.348881
v -26.293861 -5.104929 71.552330
v -25.427568 1.025352 71.552330
v 26.293861 -9.774670 71.552330
v 24.691067 -13.555024 71.552330
v -24.691067 -13.555024 71.552330
v 25.427568 1.025352 71.552330
v -26.293861 -9.774670 71.552330
v 26.293861 -5.104929 71.552330
vt 0.512763 0.700253
vt 0.625000 0.750000
vt 0.512763 0.750000
vt 0.875000 0.750000
vt 0.625000 0.750000
vt 0.375000 0.700253
vt 0.125000 0.750000
vt 0.125000 0.700253
vt 0.875000 0.700253
vt 0.625000 0.700253
vt 0.512763 0.750000
vt 0.436632 0.750000
vt 0.436632 0.700253
vt 0.512763 0.000000
vt 0.436632 0.049747
vt 0.436632 0.000000
vt 0.512763 0.625596
vt 0.436632 0.625596
vt 0.875000 0.625596
vt 0.625000 0.625596
vt 0.375000 0.625596
vt 0.125000 0.625596
vt 0.625000 0.000000
vt 0.512763 0.049747
vt 0.625000 0.534940
vt 0.512763 0.569879
vt 0.512763 0.534940
vt 0.375000 0.534940
vt 0.125000 0.569879
vt 0.125000 0.534940
vt 0.875000 0.534940
vt 0.625000 0.569879
vt 0.436632 0.569879
vt 0.436632 0.534940
vt 0.512763 0.124404
vt 0.436632 0.180121
vt 0.436632 0.124404
vt 0.625000 0.180121
vt 0.512763 0.180121
vt 0.512763 0.215060
vt 0.436632 0.215060
vt 0.625000 0.215060
vt 0.625000 0.124404
vt 0.375000 0.569879
vt 0.875000 0.569879
vt 0.375000 0.124404
vt 0.375000 0.049747
vt 0.375000 0.180121
vt 0.375000 0.215060
vt 0.375000 0.000000
vt 0.375000 0.750000
vt 0.436632 0.750000
vt 0.512763 0.000000
vt 0.625000 0.000000
vt 0.625000 0.000000
vt 0.375000 0.750000
vt 0.125000 0.750000
vt 0.125000 0.750000
vt 0.436632 0.000000
vt 0.512763 0.000000
vt 0.375000 0.000000
vt 0.625000 0.750000
vt 0.512763 1.000000
vt 0.512763 0.750000
vt 0.436632 1.000000
vt 0.436632 0.750000
vt 0.375000 0.750000
vt 0.375000 1.000000
vt 0.375000 0.000000
vt 0.436632 0.000000
vt 0.875000 0.750000
vt 0.625000 0.049747
vt 0.625000 1.000000
vt 0.875000 0.750000
vn 0.9235 0.3836 0.0000
vn 0.0000 0.8854 0.4649
vn 0.0000 -1.0000 0.0000
vn 0.0000 0.9913 0.1319
vn 0.9587 0.2758 0.0700
vn 1.0000 0.0000 0.0000
vn -1.0000 0.0000 0.0000
vn 0.0000 0.9997 -0.0239
vn 0.9349 0.3548 0.0000
vn -0.9235 0.3836 0.0000
vn 0.6420 0.7629 -0.0765
vn 0.0000 0.7750 -0.6320
vn 0.9993 0.0320 -0.0199
vn -0.9309 0.3652 0.0000
vn -0.9993 0.0320 -0.0199
vn -0.6420 0.7629 -0.0765
vn -0.9349 0.3548 0.0000
vn 0.9309 0.3652 0.0000
vn 0.0000 0.9992 -0.0402
vn 0.9866 -0.1629 0.0000
vn -0.9866 -0.1629 0.0000
vn -0.9902 -0.1397 0.0000
vn 0.9902 -0.1397 0.0000
vn -0.9472 0.2725 0.1690
vn 0.0000 -0.9240 0.3823
vn -0.9812 0.0000 0.1930
vn 0.9865 -0.1628 0.0196
vn -0.9690 -0.2468 -0.0116
vn -0.9228 0.3833 0.0384
vn 0.0000 -0.9929 0.1192
vn 0.0000 0.0000 1.0000
vn 0.9812 0.0000 0.1930
vn 0.9653 0.1364 0.2229
vn 0.0000 0.8123 0.5833
vn 0.9329 -0.2376 0.2706
vn -0.8976 -0.3806 0.2223
vn -0.0000 0.0000 -1.0000
vn 0.9369 0.3466 0.0461
vn 0.9228 0.3833 0.0384
vn 0.9379 0.3469 -0.0083
vn -0.9369 0.3466 0.0461
vn 0.8922 0.3500 -0.2855
vn 0.9991 0.0000 -0.0424
vn -0.9348 0.3548 -0.0143
vn -0.9991 0.0000 -0.0424
vn -0.8922 0.3500 -0.2855
vn -0.9379 0.3469 -0.0083
vn 0.9348 0.3548 -0.0143
vn -0.9866 -0.1628 -0.0140
vn 0.9866 -0.1628 -0.0140
vn -0.9653 0.1364 0.2229
vn 0.9690 -0.2468 -0.0116
vn -0.9865 -0.1628 0.0196
vn -0.9587 0.2758 0.0700
vn 0.9472 0.2725 0.1690
vn 0.8976 -0.3806 0.2223
vn -0.9329 -0.2376 0.2706
usemtl None
s off
f 11/1/1 4/2/1 6/3/1
f 4/2/2 42/4/2 46/5/2
f 9/6/3 1/7/3 7/8/3
f 8/9/4 4/2/4 10/10/4
f 6/3/5 46/5/5 48/11/5
f 11/1/6 31/12/6 34/13/6
f 5/14/7 33/15/7 32/16/7
f 27/17/6 34/13/6 40/18/6
f 28/19/8 10/10/8 26/20/8
f 29/21/3 7/8/3 25/22/3
f 26/20/9 11/1/9 27/17/9
f 2/23/10 12/24/10 5/14/10
f 23/25/11 18/26/11 24/27/11
f 20/28/3 16/29/3 22/30/3
f 19/31/12 17/32/12 23/25/12
f 24/27/13 35/33/13 37/34/13
f 30/35/7 36/36/7 39/37/7
f 30/35/14 13/38/14 15/39/14
f 36/36/15 21/40/15 38/41/15
f 15/39/16 19/42/16 21/40/16
f 12/24/17 28/43/17 30/35/17
f 12/24/7 39/37/7 33/15/7
f 17/32/18 27/17/18 18/26/18
f 14/44/3 25/22/3 16/29/3
f 13/45/19 26/20/19 17/32/19
f 18/26/6 40/18/6 35/33/6
f 35/33/20 29/21/20 14/44/20
f 33/15/21 25/46/21 7/47/21
f 16/48/22 38/41/22 22/49/22
f 39/37/21 16/48/21 25/46/21
f 37/34/23 14/44/23 20/28/23
f 40/18/20 9/6/20 29/21/20
f 32/16/21 7/47/21 1/50/21
f 34/13/20 3/51/20 9/6/20
f 31/12/6 48/11/6 43/52/6
f 41/53/24 50/54/24 42/55/24
f 44/56/25 53/57/25 45/58/25
f 47/59/26 49/60/26 41/53/26
f 31/12/27 44/56/27 3/51/27
f 32/16/28 45/61/28 47/59/28
f 32/16/7 41/53/7 5/14/7
f 5/14/29 42/55/29 2/23/29
f 3/51/30 45/58/30 1/7/30
f 54/62/31 49/63/31 56/64/31
f 56/64/31 55/65/31 51/66/31
f 52/67/31 55/65/31 53/68/31
f 43/52/32 56/64/32 51/66/32
f 48/11/33 54/62/33 56/64/33
f 42/4/34 54/62/34 46/5/34
f 43/52/35 52/67/35 44/56/35
f 47/59/36 53/69/36 55/70/36
f 23/25/37 24/27/37 37/34/37
f 11/1/38 10/10/38 4/2/38
f 4/2/2 2/71/2 42/4/2
f 9/6/3 3/51/3 1/7/3
f 8/9/4 2/71/4 4/2/4
f 6/3/39 4/2/39 46/5/39
f 11/1/6 6/3/6 31/12/6
f 5/14/7 12/24/7 33/15/7
f 27/17/6 11/1/6 34/13/6
f 28/19/8 8/9/8 10/10/8
f 29/21/3 9/6/3 7/8/3
f 26/20/40 10/10/40 11/1/40
f 2/23/41 8/72/41 12/24/41
f 23/25/42 17/32/42 18/26/42
f 20/28/3 14/44/3 16/29/3
f 19/31/12 13/45/12 17/32/12
f 24/27/43 18/26/43 35/33/43
f 30/35/7 15/39/7 36/36/7
f 30/35/44 28/43/44 13/38/44
f 36/36/45 15/39/45 21/40/45
f 15/39/46 13/38/46 19/42/46
f 12/24/47 8/72/47 28/43/47
f 12/24/7 30/35/7 39/37/7
f 17/32/48 26/20/48 27/17/48
f 14/44/3 29/21/3 25/22/3
f 13/45/19 28/19/19 26/20/19
f 18/26/6 27/17/6 40/18/6
f 35/33/20 40/18/20 29/21/20
f 33/15/21 39/37/21 25/46/21
f 16/48/49 36/36/49 38/41/49
f 39/37/21 36/36/21 16/48/21
f 37/34/50 35/33/50 14/44/50
f 40/18/20 34/13/20 9/6/20
f 32/16/21 33/15/21 7/47/21
f 34/13/20 31/12/20 3/51/20
f 31/12/6 6/3/6 48/11/6
f 41/53/51 49/60/51 50/54/51
f 44/56/25 52/67/25 53/57/25
f 47/59/26 55/70/26 49/60/26
f 31/12/52 43/52/52 44/56/52
f 32/16/53 1/50/53 45/61/53
f 32/16/7 47/59/7 41/53/7
f 5/14/54 41/53/54 42/55/54
f 3/51/30 44/56/30 45/58/30
f 54/62/31 50/73/31 49/63/31
f 56/64/31 49/63/31 55/65/31
f 52/67/31 51/66/31 55/65/31
f 43/52/32 48/11/32 56/64/32
f 48/11/55 46/5/55 54/62/55
f 42/4/34 50/74/34 54/62/34
f 43/52/56 51/66/56 52/67/56
f 47/59/57 45/61/57 53/69/57
f 37/34/37 20/28/37 22/30/37
f 22/30/37 38/41/37 37/34/37
f 38/41/37 21/40/37 19/42/37
f 37/34/37 38/41/37 23/25/37
f 19/42/37 23/25/37 38/41/37
o Cube.001
v -26.575686 -20.416164 -39.369999
v -21.057673 5.177962 -39.369999
v 26.575686 -20.416164 -39.369999
v 21.057673 5.177962 -39.369999
v -27.588282 1.860265 -39.369999
v 27.588282 1.860265 -39.369999
v -21.260706 7.184870 -28.365421
v 26.575686 -20.416164 -28.365421
v -27.588282 1.860265 -28.365421
v -26.575686 -20.416164 -28.365421
v 21.260706 7.184870 -28.365421
v 27.588282 1.860265 -28.365421
v -27.982050 -10.450263 -39.369999
v 27.982050 -10.450263 -39.369999
v 27.982050 -10.450263 -28.365421
v -27.982050 -10.450263 -28.365421
v -25.687523 -8.832880 -67.022247
v -24.396481 -15.211441 -64.585861
v 24.396481 -15.211441 -64.585861
v -19.330946 0.349980 -67.022247
v 19.330946 0.349980 -67.022247
v 25.687523 -8.832880 -67.022247
v -25.326044 -0.953667 -67.022247
v 25.326044 -0.953667 -67.022247
vt 0.512763 0.215060
vt 0.625000 0.250000
vt 0.512763 0.250000
vt 0.436632 0.250000
vt 0.512763 0.250000
vt 0.436632 0.250000
vt 0.375000 0.500000
vt 0.125000 0.500000
vt 0.375000 0.500000
vt 0.436632 0.215060
vt 0.512763 0.500000
vt 0.436632 0.534940
vt 0.436632 0.500000
vt 0.875000 0.500000
vt 0.625000 0.534940
vt 0.625000 0.500000
vt 0.125000 0.534940
vt 0.125000 0.500000
vt 0.512763 0.534940
vt 0.375000 0.534940
vt 0.375000 0.250000
vt 0.375000 0.215060
vt 0.436632 0.500000
vt 0.625000 0.250000
vt 0.512763 0.500000
vt 0.375000 0.250000
vt 0.875000 0.500000
vt 0.625000 0.500000
vt 0.625000 0.215060
vt 0.875000 0.534940
vn -0.4529 0.8915 0.0000
vn -0.9958 0.0457 -0.0800
vn 0.0000 -0.9794 -0.2021
vn -0.9995 0.0320 0.0000
vn 0.9995 0.0320 0.0000
vn 0.0000 0.9838 -0.1794
vn 0.0000 -1.0000 0.0000
vn 0.4529 0.8915 0.0000
vn 0.9902 -0.1397 0.0000
vn -0.9902 -0.1397 0.0000
vn 0.9682 -0.2318 -0.0939
vn 0.0000 0.0000 -1.0000
vn 0.0000 -0.3568 -0.9342
vn -0.4493 0.8844 -0.1267
vn 0.0000 0.9851 -0.1720
vn 0.9959 0.0319 -0.0847
vn 0.2090 0.9611 -0.1808
vn -0.9838 -0.1388 -0.1137
vn 0.0000 0.0000 1.0000
vn -0.6366 0.7565 -0.1497
vn -0.9959 0.0319 -0.0847
vn 0.6366 0.7565 -0.1497
vn 0.9838 -0.1388 -0.1137
vn -0.2090 0.9611 -0.1808
vn 0.9958 0.0457 -0.0800
vn 0.4493 0.8844 -0.1267
vn -0.9682 -0.2318 -0.0939
usemtl None
s off
f 65/75/58 58/76/58 61/77/58
f 69/78/59 79/79/59 73/80/59
f 59/81/60 74/82/60 75/83/60
f 65/75/61 69/78/61 72/84/61
f 62/85/62 71/86/62 70/87/62
f 58/88/63 67/89/63 60/90/63
f 59/81/64 66/91/64 57/92/64
f 60/90/65 68/93/65 62/85/65
f 70/87/66 64/94/66 59/81/66
f 72/84/67 57/95/67 66/96/67
f 70/87/68 75/83/68 78/97/68
f 76/98/69 80/99/69 79/79/69
f 79/79/69 78/97/69 73/80/69
f 73/80/70 75/83/70 74/100/70
f 58/76/71 79/79/71 61/77/71
f 60/90/72 76/101/72 58/88/72
f 70/87/73 80/99/73 62/85/73
f 60/90/74 80/99/74 77/102/74
f 69/78/75 74/100/75 57/95/75
f 72/84/76 66/91/76 71/86/76
f 65/75/77 63/103/77 58/76/77
f 69/78/78 61/77/78 79/79/78
f 59/81/60 57/92/60 74/82/60
f 65/75/61 61/77/61 69/78/61
f 62/85/62 68/93/62 71/86/62
f 58/88/63 63/104/63 67/89/63
f 59/81/64 64/94/64 66/91/64
f 60/90/79 67/89/79 68/93/79
f 70/87/66 71/86/66 64/94/66
f 72/84/67 69/78/67 57/95/67
f 70/87/80 59/81/80 75/83/80
f 76/98/69 77/102/69 80/99/69
f 79/79/69 80/99/69 78/97/69
f 73/80/70 78/97/70 75/83/70
f 58/76/81 76/98/81 79/79/81
f 60/90/72 77/102/72 76/101/72
f 70/87/82 78/97/82 80/99/82
f 60/90/83 62/85/83 80/99/83
f 69/78/84 73/80/84 74/100/84
f 66/91/76 64/94/76 71/86/76
f 71/86/76 68/93/76 67/89/76
f 67/89/76 63/103/76 72/84/76
f 63/103/76 65/75/76 72/84/76
f 67/89/76 72/84/76 71/86/76
